<svg t="1736957109130" class="icon" viewBox="0 0 1024 1024" version="1.1" xmlns="http://www.w3.org/2000/svg" p-id="1524" width="200" height="200"><path d="M50.955 901.297c0.629 44.074 15.481 55.653 46.465 50.538l816.435-128.183c30.962-5.155 48.356-26.964 49.454-57.116L975.9 422.29c1.103-30.12-23.114-50.364-54.088-45.218l-804.557 133.65c-30.978 5.132-56.983 33.732-58.087 63.881l-8.213 326.694z" fill="#EDD8B6" p-id="1525"></path><path d="M90.834 919.771c-0.562 29.685-2.13 48.712-3.502 42.532L51.583 801.092c-1.377-6.217-2.038-35.293-1.476-65.009l6.383-339.224c0.557-29.688 2.13-48.727 3.507-42.518l35.744 161.222c1.383 6.175 2.038 35.27 1.481 64.995l-6.388 339.213z" fill="#EDD8B6" p-id="1526"></path><path d="M67.223 877.775l-6.284 58.263-8.863-42.366-0.492-92.58c8.546 86.809 15.639 76.683 15.639 76.683z" fill="#B88E73" p-id="1527"></path><path d="M935.505 732.258L74.923 867.379c-9.001 1.48-16.662 1.566-23.116 0.041l-0.852 33.877c0.629 44.074 15.481 55.653 46.465 50.538l816.435-128.183c30.962-5.155 48.356-26.964 49.454-57.116l1.704-46.579c-7.901 6.094-17.759 10.346-29.508 12.301z" fill="#B88E73" p-id="1528"></path><path d="M6.032 512.367C33.229 279.116 254.3 122.793 468.447 74.148c198.13-45.011 486.675 17.857 543.934 244.365 12.47 49.355 13.578 139.762-15.826 184.422C936.588 594 819.036 611.56 719.102 621.164c-141.224 13.585-283.257 18.002-424.994 22.99-42.361 1.48-102.382-14.605-141.071 7.755-31.547 18.233-26.442 141.229-78.316 93.161C13.255 688.1-4.089 599.234 6.032 512.367z" fill="#5E422F" p-id="1529"></path><path d="M316.905 248.285c2.317-1.187 3.864-3.333 3.443-4.799l-8.306-29.136c-0.405-1.463-2.629-1.688-4.946-0.53-2.312 1.177-3.857 3.334-3.448 4.785l8.317 29.15c0.415 1.453 2.628 1.694 4.94 0.53z" fill="#FFFFFF" p-id="1530"></path><path d="M378.905 115.373c0.082-2.245-1.273-3.709-3.027-3.273l-34.792 8.712c-1.743 0.429-3.229 2.61-3.306 4.864-0.077 2.234 1.279 3.68 3.016 3.256l34.809-8.7c1.749-0.455 3.224-2.64 3.3-4.859z" fill="#9F458C" p-id="1531"></path><path d="M510.861 243.652c2.382-0.756 4.268-2.586 4.196-4.098l-1.234-29.996c-0.055-1.502-2.044-2.109-4.438-1.366-2.388 0.761-4.262 2.573-4.197 4.094l1.246 29.989c0.066 1.518 2.045 2.11 4.427 1.377z" fill="#A7D4DB" p-id="1532"></path><path d="M589.867 244.74c0.852-2.324 0.295-4.291-1.235-4.385l-30.513-2.217c-1.543-0.104-3.46 1.676-4.313 3.998-0.837 2.303-0.278 4.269 1.251 4.385l30.503 2.205c1.537 0.104 3.465-1.676 4.307-3.986z" fill="#96CDD0" p-id="1533"></path><path d="M612.773 316.062c2.329-1.12 3.936-3.17 3.59-4.556l-6.962-27.724c-0.354-1.376-2.508-1.601-4.847-0.464-2.328 1.11-3.934 3.154-3.595 4.54l6.962 27.722c0.35 1.395 2.525 1.606 4.852 0.482z" fill="#E7E577" p-id="1534"></path><path d="M233.561 231.789c2.345-0.241 4.498-1.734 4.788-3.306l5.979-31.524c0.294-1.582-1.367-2.662-3.706-2.424-2.339 0.266-4.492 1.756-4.798 3.347l-5.967 31.508c-0.307 1.589 1.355 2.649 3.704 2.399z" fill="#FBFBEA" p-id="1535"></path><path d="M428.839 211.134c2.383-0.831 4.186-2.825 4.043-4.435l-2.83-32.037c-0.148-1.6-2.186-2.235-4.568-1.398-2.383 0.857-4.197 2.842-4.055 4.443l2.841 32.055c0.154 1.601 2.188 2.228 4.569 1.372z" fill="#F0C17B" p-id="1536"></path></svg>